<svg width="369" height="48" viewBox="0 0 369 48" xmlns="http://www.w3.org/2000/svg"><title>img__ilcm-logo</title><g fill="#FFF" fill-rule="evenodd"><path d="M367.236 39.7h-75.6v.953h76.07V39.7h-.472zm-239.637 0H52v.953H128.07V39.7h-.47zM59.51 24.95v.465h-7.226v-.465h.597c.696 0 1.202-.205 1.517-.615.2-.268.3-.912.3-1.933v-11c0-.862-.055-1.43-.163-1.707-.083-.21-.253-.39-.51-.54-.365-.2-.746-.3-1.144-.3h-.597v-.466h7.226v.464h-.61c-.688 0-1.19.205-1.504.615-.208.267-.31.91-.31 1.933v11c0 .86.053 1.43.16 1.706.083.208.257.388.523.54.357.2.735.3 1.133.3h.61zm11.045.465L64.04 11.09v11.374c0 1.047.112 1.7.335 1.96.307.35.792.526 1.456.526h.598v.465h-5.87v-.465h.596c.713 0 1.22-.217 1.517-.653.184-.267.275-.878.275-1.833V11.34c0-.754-.083-1.298-.25-1.632-.115-.243-.328-.446-.64-.61-.31-.163-.81-.244-1.498-.244V8.39h4.776l6.12 13.32 6.02-13.32h4.776v.464h-.586c-.72 0-1.23.217-1.53.653-.182.268-.273.88-.273 1.833v11.124c0 1.047.117 1.7.35 1.96.306.35.79.526 1.454.526h.585v.465h-7.165v-.465h.597c.72 0 1.227-.217 1.517-.653.182-.267.273-.878.273-1.833V11.09l-6.505 14.325h-.41zm22.65 0L86.69 11.09v11.374c0 1.047.11 1.7.335 1.96.307.35.792.526 1.455.526h.598v.465h-5.87v-.465h.596c.713 0 1.22-.217 1.517-.653.184-.267.275-.878.275-1.833V11.34c0-.754-.083-1.298-.25-1.632-.115-.243-.33-.446-.64-.61-.31-.163-.81-.244-1.498-.244V8.39h4.776l6.12 13.32 6.02-13.32h4.776v.464h-.586c-.72 0-1.23.217-1.53.653-.182.268-.273.88-.273 1.833v11.124c0 1.047.117 1.7.35 1.96.306.35.79.526 1.454.526h.585v.465h-7.166v-.465h.597c.723 0 1.23-.217 1.52-.653.18-.267.273-.878.273-1.833V11.09l-6.506 14.325h-.41zm20.087-.465v.465h-7.226v-.465h.597c.697 0 1.202-.205 1.517-.615.2-.268.3-.912.3-1.933v-11c0-.862-.055-1.43-.163-1.707-.084-.21-.254-.39-.51-.54-.366-.2-.747-.3-1.145-.3h-.597v-.466h7.226v.464h-.61c-.687 0-1.19.205-1.504.615-.207.267-.31.91-.31 1.933v11c0 .86.053 1.43.16 1.706.084.208.258.388.523.54.357.2.734.3 1.132.3h.61zM129.55 8l.436 5.374h-.435c-.438-1.34-1.006-2.348-1.703-3.026-1.003-.98-2.293-1.47-3.868-1.47-2.15 0-3.782.86-4.902 2.575-.937 1.448-1.405 3.172-1.405 5.173 0 1.624.31 3.105.933 4.445.62 1.34 1.436 2.32 2.444 2.945 1.007.624 2.042.935 3.103.935.622 0 1.223-.08 1.803-.238.58-.16 1.14-.394 1.68-.703v-4.923c0-.854-.065-1.413-.193-1.676-.13-.263-.328-.464-.597-.602-.27-.138-.744-.207-1.424-.207v-.476h6.53v.477h-.31c-.648 0-1.092.218-1.332.654-.166.31-.25.92-.25 1.833v5.21c-.953.52-1.894.9-2.822 1.143-.93.243-1.96.364-3.097.364-3.258 0-5.733-1.055-7.425-3.164-1.27-1.582-1.903-3.407-1.903-5.474 0-1.5.356-2.934 1.07-4.307.845-1.633 2.006-2.89 3.482-3.768C120.6 8.364 122.06 8 123.742 8c.614 0 1.172.05 1.673.15.502.1 1.213.323 2.134.666.463.176.774.264.93.264.16 0 .294-.073.406-.22.112-.146.18-.433.205-.86h.46zm19.977 17.415h-4.503l-5.71-7.96c-.422.016-.766.025-1.03.025-.11 0-.225-.002-.35-.007-.124-.004-.253-.01-.385-.018v4.947c0 1.07.115 1.736.347 1.996.315.368.788.552 1.418.552h.66v.465h-7.227v-.465h.634c.713 0 1.223-.234 1.53-.703.174-.26.26-.875.26-1.845v-11c0-1.07-.115-1.736-.347-1.996-.324-.368-.805-.552-1.443-.552h-.634V8.39h6.144c1.79 0 3.112.13 3.962.395.85.263 1.57.75 2.164 1.456.593.71.89 1.552.89 2.53 0 1.048-.34 1.956-1.015 2.726-.675.77-1.722 1.314-3.14 1.632l3.483 4.884c.796 1.122 1.48 1.867 2.052 2.235.572.37 1.318.603 2.24.703v.465zm-11.978-8.75c.156 0 .293 0 .41.005.115.004.21.006.285.006 1.61 0 2.822-.35 3.638-1.055.817-.702 1.226-1.597 1.226-2.686 0-1.063-.33-1.927-.99-2.592-.66-.666-1.532-1-2.618-1-.48 0-1.132.08-1.953.24v7.082zm23.407 3.05h-6.53l-1.144 2.687c-.282.66-.423 1.155-.423 1.48 0 .26.122.49.367.685.245.197.773.325 1.586.383v.465h-5.31v-.465c.704-.125 1.16-.288 1.367-.49.423-.4.89-1.217 1.405-2.448L158.208 8h.436l5.87 14.163c.473 1.138.902 1.877 1.288 2.216.385.338.922.528 1.61.57v.465h-6.654v-.465c.672-.033 1.126-.146 1.362-.34.237-.19.355-.426.355-.702 0-.368-.166-.95-.498-1.745l-1.02-2.448zm-.348-.93l-2.862-6.88-2.935 6.88h5.796zm6.753-10.396h4.577l10.31 12.768V11.34c0-1.046-.115-1.7-.347-1.96-.307-.35-.792-.526-1.455-.526h-.585V8.39h5.87v.464h-.596c-.713 0-1.22.217-1.518.653-.183.268-.274.88-.274 1.833v14.35h-.448l-11.12-13.71v10.484c0 1.047.112 1.7.336 1.96.315.35.8.526 1.455.526h.597v.465h-5.87v-.465h.583c.722 0 1.232-.217 1.53-.653.183-.267.274-.878.274-1.833v-11.84c-.49-.577-.86-.958-1.113-1.142-.252-.185-.623-.356-1.113-.515-.24-.076-.605-.113-1.094-.113V8.39zm33.47 0l.187 3.992h-.472c-.092-.703-.216-1.205-.373-1.507-.257-.485-.6-.843-1.027-1.073-.427-.23-.988-.346-1.685-.346h-2.376v13.008c0 1.047.112 1.7.336 1.96.315.35.8.526 1.455.526h.585v.465h-7.152v-.465h.598c.713 0 1.22-.217 1.518-.653.182-.267.273-.878.273-1.833V9.456h-2.028c-.788 0-1.348.06-1.68.176-.43.16-.8.465-1.106.917-.307.45-.49 1.062-.548 1.832h-.472l.2-3.993h13.768zm21.332 12.316l.41.088-1.442 4.62h-13.06v-.464h.634c.713 0 1.223-.234 1.53-.703.174-.268.26-.887.26-1.858V11.402c0-1.063-.115-1.73-.347-1.997-.323-.368-.804-.552-1.443-.552h-.634V8.39h7.637v.464c-.896-.01-1.524.075-1.885.25-.36.177-.607.4-.74.666-.132.268-.2.91-.2 1.92v10.7c0 .694.068 1.17.2 1.43.1.176.253.306.46.39.208.083.855.125 1.94.125h1.232c1.294 0 2.202-.096 2.724-.29.524-.19 1-.532 1.432-1.022.43-.49.862-1.262 1.293-2.317zm12.612-.99h-6.53l-1.144 2.686c-.282.66-.423 1.155-.423 1.48 0 .26.122.49.367.685.245.197.773.325 1.586.383v.465h-5.31v-.465c.704-.125 1.16-.288 1.367-.49.423-.4.89-1.217 1.406-2.448L232.03 8h.434l5.87 14.163c.473 1.138.902 1.877 1.288 2.216.386.338.922.528 1.61.57v.465h-6.654v-.465c.672-.033 1.126-.146 1.362-.34.237-.19.355-.426.355-.702 0-.368-.166-.95-.498-1.745l-1.02-2.448zm-.348-.93l-2.862-6.88-2.935 6.88h5.796zm28.893-10.397v.464c-.44 0-.796.08-1.07.238-.274.16-.535.457-.784.892-.166.293-.428.992-.784 2.097l-4.702 13.724h-.497l-3.844-10.886-3.818 10.886h-.448l-5.012-14.138c-.374-1.054-.61-1.678-.71-1.87-.165-.32-.39-.555-.677-.71-.286-.155-.674-.232-1.163-.232V8.39h6.244v.464h-.3c-.44 0-.775.1-1.007.3-.232.202-.35.445-.35.73 0 .292.184.966.55 2.02l3.32 9.556 2.798-8.124-.496-1.43-.398-1.144c-.174-.418-.37-.787-.585-1.105-.107-.16-.24-.293-.397-.4-.207-.152-.415-.26-.622-.328-.156-.05-.405-.076-.745-.076V8.39h6.567v.464h-.448c-.464 0-.804.1-1.02.3-.215.202-.323.474-.323.817 0 .428.188 1.173.56 2.236l3.235 9.254 3.21-9.38c.364-1.037.546-1.757.546-2.16 0-.19-.06-.37-.18-.54-.12-.166-.27-.283-.453-.35-.315-.118-.726-.176-1.232-.176V8.39h5.038zM284.766 8l.386 5.788h-.386c-.514-1.732-1.248-2.98-2.202-3.74-.953-.763-2.097-1.144-3.432-1.144-1.12 0-2.13.287-3.035.86-.904.573-1.615 1.488-2.133 2.744-.52 1.255-.778 2.816-.778 4.683 0 1.54.245 2.876.734 4.006.49 1.13 1.225 1.997 2.208 2.6.982.602 2.104.903 3.364.903 1.095 0 2.06-.237 2.898-.71.838-.473 1.758-1.413 2.762-2.82l.385.252c-.846 1.515-1.832 2.624-2.96 3.327-1.128.703-2.467 1.054-4.018 1.054-2.795 0-4.96-1.046-6.493-3.14-1.145-1.556-1.717-3.39-1.717-5.498 0-1.7.378-3.26 1.132-4.684.755-1.423 1.793-2.525 3.116-3.308C275.92 8.39 277.365 8 278.933 8c1.22 0 2.42.3 3.607.904.348.184.597.276.746.276.224 0 .42-.08.584-.238.216-.226.37-.54.46-.942h.436zm6.978 1.318v6.73h3.706c.962 0 1.605-.146 1.928-.44.43-.384.672-1.062.722-2.033h.46V19.5h-.46c-.116-.828-.233-1.36-.35-1.593-.148-.293-.392-.524-.732-.69-.34-.168-.863-.252-1.568-.252h-3.706v5.612c0 .754.033 1.212.1 1.375.066.163.182.293.348.39.165.096.48.144.945.144h2.86c.954 0 1.647-.067 2.078-.2.43-.135.846-.4 1.244-.792.513-.52 1.04-1.302 1.578-2.348h.498l-1.455 4.27h-12.997v-.466h.597c.398 0 .775-.096 1.132-.288.265-.134.445-.335.54-.603.096-.27.144-.817.144-1.646V11.352c0-1.08-.108-1.745-.324-1.996-.298-.335-.796-.502-1.492-.502h-.597V8.39h12.998l.187 3.728h-.485c-.174-.895-.367-1.51-.578-1.845-.212-.335-.525-.59-.94-.766-.33-.126-.916-.19-1.753-.19h-4.626zm9.9-.93h4.578l10.31 12.77V11.34c0-1.046-.115-1.7-.347-1.96-.307-.35-.792-.526-1.456-.526h-.585V8.39h5.87v.464h-.596c-.715 0-1.22.217-1.52.653-.18.268-.273.88-.273 1.833v14.35h-.447l-11.12-13.71v10.484c0 1.047.112 1.7.336 1.96.315.35.8.526 1.455.526h.598v.465h-5.87v-.465h.584c.72 0 1.23-.217 1.53-.653.182-.267.273-.878.273-1.833v-11.84c-.49-.577-.86-.958-1.113-1.142-.253-.185-.624-.356-1.113-.515-.24-.076-.606-.113-1.095-.113V8.39zm33.47 0l.188 3.994h-.473c-.092-.703-.216-1.205-.374-1.507-.257-.485-.6-.843-1.026-1.073-.427-.23-.99-.346-1.685-.346h-2.376v13.008c0 1.047.11 1.7.335 1.96.315.35.8.526 1.455.526h.585v.465h-7.152v-.465h.597c.713 0 1.22-.217 1.517-.653.183-.267.274-.878.274-1.833V9.456h-2.026c-.788 0-1.348.06-1.68.176-.43.16-.8.465-1.107.917-.306.45-.49 1.062-.547 1.832h-.473l.2-3.993h13.768zm6.146.93v6.73h3.706c.962 0 1.605-.146 1.928-.44.43-.384.672-1.062.722-2.033h.46V19.5h-.46c-.116-.828-.232-1.36-.35-1.593-.148-.293-.392-.524-.732-.69-.34-.168-.863-.252-1.568-.252h-3.706v5.612c0 .754.033 1.212.1 1.375.066.163.182.293.348.39.165.096.48.144.945.144h2.86c.954 0 1.647-.067 2.078-.2.432-.135.847-.4 1.245-.792.514-.52 1.04-1.302 1.58-2.348h.497l-1.455 4.27H336.46v-.466h.596c.398 0 .775-.096 1.132-.288.265-.134.445-.335.54-.603.096-.27.144-.817.144-1.646V11.352c0-1.08-.108-1.745-.324-1.996-.298-.335-.796-.502-1.492-.502h-.597V8.39h12.997l.186 3.728h-.485c-.174-.895-.367-1.51-.578-1.845-.212-.335-.525-.59-.94-.766-.33-.126-.916-.19-1.753-.19h-4.627zm27.45 16.097h-4.502l-5.71-7.96c-.422.016-.766.025-1.03.025-.11 0-.225-.002-.35-.007-.124-.004-.252-.01-.385-.018v4.947c0 1.07.116 1.736.348 1.996.316.368.79.552 1.42.552h.658v.465h-7.226v-.465h.634c.713 0 1.223-.234 1.53-.703.174-.26.26-.875.26-1.845v-11c0-1.07-.115-1.736-.347-1.996-.324-.368-.805-.552-1.444-.552h-.634V8.39h6.144c1.79 0 3.112.13 3.962.395.85.263 1.57.75 2.164 1.456.593.71.89 1.552.89 2.53 0 1.048-.34 1.956-1.014 2.726-.676.77-1.723 1.314-3.14 1.632l3.482 4.884c.796 1.122 1.48 1.867 2.052 2.235.572.37 1.318.603 2.24.703v.465zm-11.977-8.75c.157 0 .294 0 .41.005.116.004.212.006.286.006 1.608 0 2.82-.35 3.638-1.055.816-.702 1.225-1.597 1.225-2.686 0-1.063-.33-1.927-.99-2.592-.658-.666-1.53-1-2.617-1-.48 0-1.132.08-1.953.24v7.082zM139.78 32.484c1.866 0 3.48.715 4.848 2.144 1.367 1.43 2.05 3.213 2.05 5.352 0 2.204-.688 4.033-2.066 5.487-1.377 1.454-3.044 2.18-5 2.18-1.98 0-3.64-.708-4.986-2.127-1.346-1.42-2.018-3.255-2.018-5.508 0-2.304.777-4.182 2.33-5.637 1.35-1.262 2.964-1.893 4.843-1.893zm-.2.78c-1.286 0-2.317.482-3.094 1.444-.968 1.197-1.452 2.95-1.452 5.262 0 2.367.5 4.19 1.505 5.465.768.97 1.786 1.455 3.05 1.455 1.35 0 2.463-.53 3.343-1.594.88-1.062 1.32-2.738 1.32-5.027 0-2.48-.485-4.33-1.453-5.55-.777-.97-1.85-1.454-3.22-1.454zm12.375.343v5.7h2.617c.6 0 1.04-.133 1.32-.4.278-.268.463-.797.555-1.59h.392v4.91h-.393c-.007-.563-.08-.976-.217-1.24-.138-.264-.328-.462-.572-.594-.244-.132-.606-.198-1.086-.198h-2.617v4.557c0 .734.046 1.22.138 1.454.07.18.22.332.445.46.31.17.635.257.974.257h.52v.396h-6.167v-.396h.51c.592 0 1.023-.175 1.29-.524.17-.228.256-.777.256-1.647v-9.37c0-.734-.045-1.22-.137-1.454-.07-.18-.216-.333-.435-.46-.303-.172-.628-.258-.974-.258h-.51v-.396h10.692l.138 3.188h-.37c-.185-.678-.4-1.175-.642-1.492-.244-.318-.544-.548-.9-.69-.358-.143-.91-.214-1.66-.214h-3.167zm21.932 13.712l-5.552-12.204v9.69c0 .89.096 1.448.286 1.67.263.298.676.448 1.24.448h.51v.396h-5v-.396h.507c.608 0 1.04-.185 1.293-.556.155-.228.233-.75.233-1.562V35.33c0-.642-.07-1.105-.212-1.39-.098-.207-.28-.38-.545-.52-.265-.138-.69-.208-1.276-.208v-.396h4.067l5.213 11.348 5.128-11.348h4.07v.396h-.5c-.613 0-1.048.185-1.302.556-.156.228-.233.75-.233 1.562v9.476c0 .89.1 1.448.296 1.67.26.298.674.448 1.24.448h.497v.396h-6.103v-.396h.51c.613 0 1.044-.185 1.29-.556.157-.228.234-.75.234-1.562v-9.69l-5.54 12.204h-.35zM191 46.924v.396h-6.157v-.396h.51c.592 0 1.023-.175 1.29-.524.17-.228.256-.777.256-1.647v-9.37c0-.734-.047-1.22-.14-1.454-.07-.18-.215-.333-.434-.46-.31-.172-.635-.258-.974-.258h-.51v-.396H191v.396h-.52c-.587 0-1.014.175-1.282.524-.177.228-.265.777-.265 1.647v9.37c0 .734.046 1.22.138 1.454.07.18.22.332.446.46.303.17.625.257.964.257h.52zm.243-14.108h3.9l8.782 10.878V35.33c0-.892-.1-1.448-.296-1.67-.263-.298-.676-.448-1.24-.448h-.5v-.396h5.002v.396h-.51c-.606 0-1.037.185-1.29.556-.157.228-.234.75-.234 1.562v12.225h-.382l-9.472-11.68v8.93c0 .892.095 1.45.286 1.67.268.3.682.45 1.24.45h.508v.395h-5v-.396h.497c.615 0 1.05-.185 1.304-.556.154-.228.232-.75.232-1.562V34.72c-.417-.492-.733-.816-.95-.973-.214-.157-.53-.303-.947-.44-.205-.063-.516-.095-.932-.095v-.396zm15.67 0h3.9l8.783 10.878V35.33c0-.892-.1-1.448-.297-1.67-.262-.298-.675-.448-1.24-.448h-.498v-.396h5v.396h-.508c-.607 0-1.038.185-1.293.556-.154.228-.232.75-.232 1.562v12.225h-.38l-9.473-11.68v8.93c0 .892.095 1.45.286 1.67.27.3.682.45 1.24.45h.51v.395h-5.002v-.396h.498c.614 0 1.05-.185 1.303-.556.155-.228.232-.75.232-1.562V34.72c-.417-.492-.733-.816-.948-.973-.216-.157-.532-.303-.948-.44-.205-.063-.516-.095-.933-.095v-.396zm20.492.792v5.733h3.157c.82 0 1.367-.124 1.642-.374.368-.328.573-.905.615-1.732h.39v5.048h-.39c-.1-.706-.2-1.16-.298-1.358-.127-.25-.335-.446-.625-.59-.29-.14-.734-.213-1.335-.213h-3.157v4.782c0 .642.028 1.033.085 1.172.056.14.155.25.296.33.14.083.41.124.805.124h2.438c.813 0 1.403-.057 1.77-.17.367-.115.72-.34 1.06-.675.437-.442.886-1.11 1.345-2h.424l-1.24 3.637h-11.072v-.396h.51c.338 0 .66-.082.963-.246.226-.114.38-.285.46-.513.082-.23.122-.696.122-1.402V35.34c0-.92-.09-1.486-.275-1.7-.254-.285-.678-.428-1.27-.428h-.51v-.396h11.072l.16 3.177h-.414c-.148-.763-.313-1.287-.493-1.572-.18-.285-.447-.502-.8-.652-.282-.107-.78-.16-1.494-.16h-3.94zm18.67-1.123V37.5h-.393c-.127-.962-.355-1.728-.684-2.3-.328-.57-.796-1.022-1.403-1.357-.608-.335-1.237-.503-1.886-.503-.736 0-1.344.227-1.824.68-.48.452-.72.968-.72 1.545 0 .442.152.845.455 1.21.44.534 1.48 1.247 3.127 2.138 1.342.727 2.26 1.285 2.75 1.674.49.388.868.846 1.133 1.374.265.53.397 1.08.397 1.66 0 1.097-.422 2.044-1.266 2.84-.843.794-1.93 1.19-3.257 1.19-.417 0-.81-.03-1.176-.095-.22-.036-.673-.166-1.36-.39-.69-.225-1.126-.337-1.31-.337-.176 0-.316.053-.418.16-.104.107-.18.328-.23.663h-.39V42.68h.39c.184 1.04.432 1.82.742 2.337.31.517.786.946 1.426 1.29.64.34 1.34.512 2.103.512.884 0 1.58-.235 2.093-.706.512-.47.768-1.026.768-1.667 0-.357-.096-.717-.29-1.08-.194-.364-.496-.703-.906-1.017-.275-.214-1.028-.668-2.257-1.364-1.23-.695-2.103-1.25-2.622-1.663-.52-.414-.913-.87-1.18-1.37-.27-.5-.404-1.048-.404-1.647 0-1.04.397-1.938 1.188-2.69.79-.752 1.797-1.128 3.02-1.128.762 0 1.57.19 2.426.567.395.178.674.267.837.267.184 0 .335-.056.45-.167.118-.11.21-.333.282-.668h.392zm10.054 0c1.864 0 3.48.715 4.846 2.144 1.367 1.43 2.05 3.213 2.05 5.352 0 2.204-.688 4.033-2.066 5.487-1.377 1.454-3.044 2.18-5 2.18-1.978 0-3.64-.708-4.986-2.127-1.345-1.42-2.018-3.255-2.018-5.508 0-2.304.777-4.182 2.33-5.637 1.35-1.262 2.964-1.893 4.843-1.893zm-.202.78c-1.286 0-2.317.482-3.094 1.444-.968 1.197-1.452 2.95-1.452 5.262 0 2.367.502 4.19 1.505 5.465.77.97 1.787 1.455 3.05 1.455 1.35 0 2.465-.53 3.344-1.594.88-1.062 1.32-2.738 1.32-5.027 0-2.48-.484-4.33-1.45-5.55-.778-.97-1.852-1.454-3.222-1.454zm20.49-.45l.16 3.403h-.403c-.077-.6-.183-1.027-.317-1.284-.22-.414-.51-.718-.875-.914-.363-.197-.842-.295-1.435-.295h-2.024v11.08c0 .892.095 1.45.286 1.67.27.3.682.45 1.24.45h.498v.395h-6.093v-.396h.51c.606 0 1.037-.185 1.292-.556.155-.228.233-.75.233-1.562v-11.08h-1.727c-.67 0-1.148.05-1.43.15-.368.135-.682.395-.944.78-.262.385-.417.906-.467 1.562h-.402l.17-3.402h11.73zm8.89 9.65h-5.562l-.975 2.288c-.24.563-.36.984-.36 1.262 0 .22.105.415.314.583.208.167.658.276 1.35.326v.396h-4.524v-.396c.6-.107.99-.246 1.166-.417.36-.342.76-1.038 1.197-2.086l5.054-11.935h.37l5.002 12.064c.402.97.767 1.598 1.096 1.887.328.29.785.45 1.372.487v.396h-5.67v-.396c.573-.03.96-.125 1.16-.29.203-.163.303-.363.303-.598 0-.314-.14-.81-.422-1.487l-.87-2.086zm-.296-.793l-2.437-5.86-2.5 5.86h4.937zM.07 2.754l.858.034.688.035.687.017.688.034.69.017.687.018 1.375.034.687.017h.17l.414.017h.103l.585.017 1.46.017.602.018h.24l.895.017.016-1.42V.24l.017-.103V0l.017.017v.018l.018.017h.017l.086.068.052.017h.035l.017.017.017.017.07.018.155.07h.05l.173-.035.138-.086h.086l.086-.017.017.017.224.137.016.017.137.12.138.086h.087l.103.017-.035.103-.017.103.138.63v.138l.12.582v.034l.12.154v.787h.155l.19.923v.086l-.052.034.017.034-.017.086.035.102-.018.017-.034.018-.033.034-.018.05.05.12v.17l.018.086.017.017.086.052.036.017.034.05.034.035.035.052v.033l.033.035.103.033.052.035.052.035v.017l.017.017.017.017.017.02.018.016.103.017.053-.017.034.017.035.016.034.085h.07l.085.018.035.017h.155l.034.017.07.034.034-.016.034-.017.052-.034.034-.035v-.034l.017-.017h.224l.05.034.07.018.05.017.087-.017.103-.05.05.016.036.017.05.018.036.035.05.017.036.017v.034l.034.035v.034l.017.034-.035.12v.016l.052.052V5.8h.068l.052.016h.19l.102.017.05.017h.104l.07.017h.085l.05-.017.034.017h.086l.018-.017h.034l.017.017h.102l.035.017h.034l.12-.017h.036l.05.034.07.018h.086l.034.035h.052l.086.017.068-.017v-.017h.018l.137.034h.224l.018.017h.017l.017.017.035.103.017.017v.017l.017.035v.017l.018.05.035.087.017.033v.017l.017.07-.017.05v.05l-.017.052v.07l-.035.033v.05l.017.036.018.018.05.017.018.017.02.034h.12l.05-.017.035.016h.017l.052-.017h.155l.016-.018.017.017h.017l.052.016h.017l.085-.017h.155l.017-.018.017-.034.017-.034.018-.018.018-.017h.017l.034.068h.035l.017.017v-.017h.033l.017-.034.035-.018h.017l.052.018.085-.018h.12l.05-.034h.07l.017-.017.07-.05.102-.018.068-.017h.017l.035-.07.017-.05-.017-.034V6.45l-.018-.053-.017-.102V6.26l.07-.017h.068l.017-.017.017-.017.017-.018.017-.017.053-.034.034-.016h.035v.017l.017.018h.033l.052-.017h.05l.036-.016.018-.052.034.017h.017v-.035l.017-.068V5.97h.017l.48-.12h.242l.137.103.017.034h.017l.172-.017.292-.017.533.017.172-.07.017.018v.17l.103.02.12.067.07.017.893.428.36-.07.12.035.053.154v.068l-.017.034v.034l.017.017-.017.017-.035.017-.05-.017h-.035l-.05.035h-.12l-.07.017-.017.085-.035.086v.017l-.017.068.138.137.12.034.05.033.414-.05.206-.052.12-.016h.035l.085.12.017.016.017.018h.016v.034l.035.05.104.035v.103l-.103.223.052.154.052.136.034.052.07.102.016.035V8.4l.035.033.016-.017.017.017.052.068.103.24.017.035.017.05.017.035v.035h.017v.034l.017.016.017.017v.05l.036.053.017.017.034-.017.07-.07h.033l.017-.016.018-.017.017.017.034-.034h.017l.052-.017.172-.035.05-.035-.016-.068-.085-.068-.034-.052.018-.034h-.017V8.62l-.033-.085.034-.136-.068-.07.017-.05.05-.018.018-.155.138-.085.223.035h.016v.034l.07-.016h-.018v-.017l.017-.035.052.018v.017h.017l.07-.035v-.034l.085-.052.085-.016.017.068h.275l.034.017.036-.034.068-.016h.052l.034.086h.017v.017l-.017.017.017.068.052.017.033.05.155.035-.052.188v.085l.035.052v.12l.087.034.05.102h.018v.017h.018l.017-.017v-.05h.07l.016.016.017.017v.033l-.034.017v.07h.05l.017.016h.017l.018-.017.017-.018h.033l.052-.017.017-.017h.05l.002.017h.017l.052-.017.052.085.086.068.034.087.086-.017h.086l.086-.017V9.1l.034.017.052.034h.034l.018.035h.017l.017-.017.086-.017h.017l.017-.033h.018l.017.034.016.018h.034v-.05h.018l.137.05.017.034v.052l-.05.05v.018l-.018.07H29l.018-.02h.07v.138l-.02.017.036.052h.017l.018.016v.017l-.017.068-.016.07-.017.017-.018.034v.018l.05.017.053-.034v-.016l.05-.017V9.8l-.033.052.05.017h.087v-.035l.052-.017.016.017-.017.017.068.103.137-.05h.138l.07-.036.085-.018.034.035-.086.085-.017.205.016.07-.017.068.05.05.12-.085.293-.12h.12l.07-.016h.034l-.017.033.05.086v.017l.018.017h.035l.086-.05.12-.018.05-.07.052-.034.034.018.07-.052h.05l.018.017h.05v-.018h.018l.052-.017h.137l.07-.052h.052l.086-.05.068-.086.052-.035.07-.034.12-.17.033.016.036-.034.103-.12.085-.068v-.05l.103-.036V9.34l.017-.035.035-.017.05-.017.036-.016.017-.034.034-.035.018.017h.017l.05-.017.018-.034.035-.016.07-.017.033-.017v.017h.017l.052-.017v-.017l.05-.052.053-.016v-.017l.137-.137.258-.102h.052l.052-.052.033-.034.07-.034.033.034.034.017h.035l.103-.052h.017l.035.034v.103l.034.188v.205l.017.017.036-.034V9.1h.017l.017.017v.017h.052l.034.017.017.104.017.034.07-.017v-.016l.016-.017.018.017.017.017-.016.035v.068l-.035.018-.052.052-.018.017.018.016h.034l.017.017-.018.034.017.017h.016l.035.018v.017l.018.016v.017h.034v.05l.035.087v.017l.07.05.05-.033.19-.017.085-.034.24-.035.087-.068h.033l.017-.017.052-.034H35l.017-.018.035-.035.017-.017.016.034.035-.017h.052l.017.035-.07.085.018.05.017.018.05.018.208-.035.034.017v-.017h.07V9.68h.016l.017.018h.017l.018-.017.017-.016.017-.034h.033l.018-.017h.018l.07.017.016.017.017.017.035.017.155-.05h.035l.05.034h.036v.034h.018v.017l.05.018v-.018l.018-.017h.018l.068-.017.035.018h.017V9.68h.034v-.033l.035-.017.07-.017.033-.017h.034l.035.017.034.034h.016l.07-.05h.05l.07.016.103-.05.05-.02.035.02h.034l.085-.02h.034l.05-.033.07.017.068-.017h.035l.017-.017h.052l.017.034h.033v.017h.172l.086.018.087.034.052.034h.033l.017.017.052.017.034.017.035.104.018.034.034-.017.07.087.016.068v.137l.017.017.017.034h.018l.017-.018.034.018.018.033.035.034h.034l.034.02.02-.036h.085l.017.017v.036l.017.017.085.085v.017h.05l.02.017.033.035h.137V10.4l.018-.018.103-.034.017-.033v-.035h.017l.034.017h.018l.034-.086.017-.033.07-.033v.033l.05-.017v-.016h.07l.016-.018.034-.017.05-.018h.105v.017h.033v-.018l.034.017h.035l.017-.018v.034h-.018v.034l.017-.016.016-.018h.017v.05h.052v.018l.017.017h.017l.05-.05h.018v.017h.017l.018-.017h.05v.017h.035v-.017h.035l.034.034v.017h.017v-.016h.052v.017l.017-.016-.017-.017v-.017l.07-.016h.033l.016-.018v-.017l.018-.018h.017v.052l.018.033h.07l.016.034h.034v.036h.018l.05-.017.035-.036.397-.12-.017.07v.016l-.017.017-.052.017-.188.07-.052.05v.086l-.05.034-.036.034-.086.018-.05-.035-.07-.068h-.017l-.016-.017h-.052l-.034.017-.035.052v.12l.017.034-.017.017-.086.017h-.017l-.12.052-.07.034-.085.068-.086.07-.035.067-.07.05-.034.036-.05.033-.138.102-.155.086h-.017l-.068.035-.018.017-.05.017h-.104l-.24.102-.018.017-.034.033.017.052h-.017l-.018.034h-.017l-.034.033-.156.103-.034.017-.172.068-.155.035-.034.017h-.018l-.086.035-.017.017v.017l-.018.035h-.035l-.034.017-.052.017-.102.05h-.086l-.12.018h-.017v.017l-.104.05-.033.07-.138.016h-.087l-.103.036-.05.034h-.02l-.067.034-.103.05-.052.02-.052.016H36.6l-.018.017h-.017l-.017.017h-.018v.05h-.086l-.05.018h-.036l-.12.034-.034.018-.155.034-.087.034-.017.034-.086.05-.19.07-.12.05-.017.018-.052.017-.033.018-.07.104-.308.153-.138.103h-.018v.017l-.034.017-.206.103-.138.085-.05.035-.07.05-.155.12-.12.103-.154.12-.017.017-.035.034-.035.016-.12.103-.052.033-.017.034-.05.052-.138.118v.052l-.034.034-.018.017h-.034l-.017.018-.053.034-.017.017-.12.102-.052.05-.017.018-.085.086-.034.017-.085.103-.018.017-.05.05-.053.018h-.017l-.017.018-.07.086-.016.05-.07.07-.068.102-.034.017-.034.017-.12.103-.018.05-.086.104h-.017v.017h-.035l-.017.035-.05.067-.02.068-.033.085h-.017v.017l-.017.035-.086.086v.017l-.052.033-.12.155v.016h-.017l-.018.05-.017.036v.017l-.034.05-.035.035h-.018l-.017.017-.103.103-.017.017-.086.103-.087.085-.052.086-.016.033h-.017l-.034.068-.017.035h-.018l-.017.052-.067.05-.018.018-.017.034-.034.05-.07.035-.033.034-.017.016-.05.034-.07.103-.05.05-.053.07-.017.034-.017.017-.103.103-.103.034-.035.035h-.017l-.052.085h-.017l-.087.052-.05.017-.087.05-.07.034-.05.12-.035.05-.05.036h-.018v.017l-.034.017-.086.085-.017.034v.017h-.018v.018h-.017v.017l-.034.102-.086.052v.016l-.035.034-.068.035h-.035l-.05.017-.036.016-.155.155-.016.034-.137.154v.018h-.018l-.07.086v.034l-.068.05h-.017l-.07.052-.102.052h-.035l-.034.017-.172.136-.052.034-.034.017-.086.103-.05.05-.036.018v.017l-.172.103-.172.154-.068.085-.035.017-.034.017-.07.053-.016.017-.034.017-.035.034-.05.052-.036.017-.017.016v.035l-.034.018-.05.034H27.4l-.034.034-.035.034v.018l.018.068.018.034.137.222.206.275.07.033-.034.017-.017-.017-.053-.016-.052-.052-.12-.12-.034-.034-.102-.103h-.155l-.05.035-.07.05-.017.036v.05l.017.017-.035.052v.017l-.017.017h-.033l-.07-.035-.016.017h-.102v.017l-.017.034-.017.033-.017.017h-.017l-.018.018.017.034.033.017h.086l.017.035.017.017v.05l-.035.018-.035.017-.017.017-.035.052-.034.033v.017l.016.034v.034l-.017.017-.035.017h-.017l-.052-.017h-.017l-.036.035h-.05l-.07-.07h-.017l-.035.052-.034.018v-.018l-.017-.05h-.05l-.018-.018v-.05h-.017l-.017.016v.016l.017.07v.495l.017.463v.428l.017.36v.12l.016.666v.36l.018.205v.634l.017.103v.7l.018.036-.034.016h-.035l-.07.016v.017l-.05.017-.018.017-.018.018v.017h-.017v.085l-.017.034-.017.018v.12l-.017.017-.018.017v.052l-.034.034h-.034l-.052-.017-.05-.016-.053-.017-.103-.052h-.07l-.033.017-.036.035-.034.034-.017.036v.017l-.035.05v.018l-.017.018v.05l-.016.02-.035.016v.05l.017.018-.018.017-.035.033h-.052l-.034-.017h-.035l-.017-.017-.035-.018-.086-.017-.017-.017h-.017l-.017.017h-.018l-.05.034-.036.068h-.017v.017l-.017.05.017.035-.017.034-.052.017-.05.02h-.018l-.035.016-.05.034-.07.017-.034.017-.02.017-.016.018-.034-.017-.035.035h-.017l-.034-.017h-.017v.017l.017.052h-.017l-.086.017h-.017l-.085.085-.018.016.018.035-.035.018h-.017l-.017.017-.018.017-.052.034h-.034v.017l-.035.017-.05.07-.07.118v.086l-.016.085-.034.034-.018.017-.05.035h-.018v.017l-.018.034V28l.018.035v.034l.017.033v.068l-.016.02-.035.033-.018.017-.034.034v.017l-.017.053v.068l-.017.07v.016l-.068.07-.035.016v.034h-.017v.017h-.017v.017h-.017l-.018.017-.052.035-.017.034h-.035l-.034.017-.017.017h-.034v.034l-.018.017h-.05l-.018.018-.018.018v.05l-.018.086.017.035-.035.05v.12l-.017.07-.017.05v.035l-.017.068v.206l.035.05v.035l-.017.035v.086l.018.035-.017.086.018.035v.017l.07.034.136.017h.017l.053.017.05.017h.07l.052-.017.068-.034h.018l.052-.017h.017l.016.016.035.017.052.05v.02h.018l.017.016h.017l.034.033.052.034.034.034v.035l-.017.086.017.052v.035l.086.085.052.086.017.034.016.034.017.034.017.017v.017l.035.035v.016l.017.034h.017l.102.034.035.034.034.086v.222h.018v.017l-.017.05v.07l-.05.017-.035.018-.017.033-.017.035-.017.018-.017.017v.07l-.103.066-.034.052v.035l.016.084v.07l-.017.05-.036.05-.103.087-.016.052h-.017l-.017.017-.035.05-.034.018-.05.018v.018l-.018.017v.017l.018.05.017.018.034.05v.053l-.016.052-.017.017-.017.033.017.086v.067l.017.034.017.02v.084l-.033.017-.017.035v.017l-.018.07v.1l.052.036.017.034H24v.017h-.017l-.016.05v.103l.05.102.02.12.016.034h.017v.05l-.017.035-.017.017-.052.017-.05.068-.052.05-.052.052-.017.017h-.018l-.017.017-.034.07-.017.016v.085l.035.035v.017l.017.017.034.035h.016l.035.033.018.016.017.016h.017l.035.052.017.034v.018l-.017.017v.05l-.017.035-.018.034v.102l.018.018-.018.05v.035l.018.036v.05l.05.018v.017l.035.052v.07l.018.033v.103l-.018.085-.017.07v.016l-.017.016-.033.017-.035.017v.103l.018.05.034.052.017.017-.016.018-.017.034v.12l.017.085v.05l-.017.017v.017l-.017.018v.05l-.035.07h-.017v.12l-.017.05-.016.034-.035.052-.035.034-.017.068-.017.035v.102l.018.017.017.017v.018l.07.052h.016l.052.017v.018l.07.016.05.052.018.018h.017l.103.05.12.103.07.07.016.034h.017l.035.05.103.103.052.052.035.033.137.07.052.068.017.034v.05l-.017.035v.07l.017.016h.017l.018.017.034-.017.034.017.07.034v.033h.016v.018h.035l.017-.034h.052v.017l.05.052.053.102.016.035-.017.017v.05h.016v.017h.052v-.017h.017l.017-.017.034-.017.035-.017h.018l.034.016v.017h.017l.034.017.034.017h.052l.017-.017h.017l.052.017h.017l.052.017.034.017.068-.016.05-.017h.036l.034.017.017.017h.07l.016.018h.087l.07-.017h.102l.05.018.07.018.034.034.052.034.017.017v.018h.017v.017l.017.017.017.07.017.033.02.034v.12l.016.016v.017l.017.034v.017h.017v.017l.018.02.017.016v.017l.05.05.018.035.086.07.085.033.018.018.017.017.017.034.034.033.07.052h.034l.12.034.035.016.102.034h.052l.12.017.086.017.017.018.034.034h.02l.016.017.05.017h.036l.05.017.018.017.035.017h.086l.035.018h.017l.035.035v.017h.017l.034.05.103.052h.02l.05.017h.017l.018.017.017.017.034.017.034.018.018.017h.068v.018h.035v.017h.018l.034.033.035.035.017.034.052.07.034.015.034.017.018.017.034.07.017.017v.035l.017.05v.035l-.034.052-.017.033v.05l.016.018.017.018.07.034h.016v.017l.034.017.017.017v.102l.035.035.017.018v.068l-.034.086v.034l.017.034.07.085.016.018v.085l.018.017.017.017.035.017.034.016.017.018.036.017.017.018.017.017h.017l.018.017.034.017.016.016.07.103.05.033.07.034.137.052.034.033.035.034.034.017.017.017h.103l.018.018.05.017h.018l.052.07.017.016v.103l.018.018.07.035h.068l.035.034.018.016.017.017.017.017.017.017.016.035.018.05.017.018v.017h.018l.017.017.017.017.018.018.017-.017.017.018h.017l.018.017.018.018.017.017.017.017h.017l.07.034.016.018v.017h.017v.017l.017.017v.017l.018.017v.017h.034v.018h.016l.017.017.017.017h.138l.07.034h.136l.086.017h.034l.052.034.07.035h.016l.05-.017.036.017.034.017.034.016h.035l.035.017h.017v.018h.018l.017.018v.016l.034.052v.034h.018l.07.07v.032l.016.035.017.017.07.034.034.018.018.017.068.068.035.052.017.017v.017l.017.05.034.07v.016l.034.017.017.018.017.017.018.034v.033l.017.017h.017v.017l.052.017.034.035h.017v.016l.018.034.017.034v.017l.017.07.05.05.018.018v.017h.017l.034.034.034.033.017.035.035.034v.068l.017.034.018.052v.034l.034.086.017.017.018.068v.018h.018l.034.05.05.07v.017l-.016.05-.034.172v.12l-.017.034v.018l-.017.034-.018.035-.017.034.018.12-.017.018-.016.12v.103l.017.068v.018l.036.034.017.017v.07l-.035.084.018.104.034.068.017.017.017.016h.017l.02.018.033.034.034.034.018.017.017.016v.017l.017.017v.12l-.018.034-.035.052v.017l-.017.017v.085l.052.052.017.068.016.017.035.017v.016h.018l.017.017.017.018v.103h-.378l-.052.017-.447.017h-.172l-.24.017h-.293l-.24.018h-.447l-.034.017v-.018l-.018.017h-.464l-.172.016h-.43l-.017.017h-.363l-.412.017h-.207l-.19.017h-.532l-.446.017h-.172l-.395.017h-.293l-.154.018h-.534l-.085.017h-.602l-.465.017h-.343l-.258.018h-.448l-.223.017h-.895l-.138.017h-1.05l-.17.017h-1.29l-.034.018H17.69l-.482.017-.207-.017h-4.554l-.24-.017h-1.823l-.07-.016h-1.27l-.258-.017h-1.1l-.12-.017h-.568l-.413-.018H6.31l-.414-.017H5.21l-.26-.017h-.43l-.153-.017h-.43l-.104-.016H3.49l-.55-.017h-.035l.017-.633v-.222l.017-.514v-.12l.017-.58v-.223l.017-.103v-.36l.017-.204v-.58h.018v-.6l.017-.086v-.017l.018-.564.017-.684v-.342l.017-.102v-.462h.017v-.565l.017-.05v-.394l.02-.136v-.547l.016-.12v-.017l.017-.667v-.017l.017-.445v-.564l.017-.017v-.343l.018-.667v-.154l.017-.41v-.138l.017-.444v-.36l.016-.102V33.2l.017-.205v-.48l.018-.22v-.258h-.017v-.034l-.017-.017-.017-.05-.018-.035h-.017v-.068l-.035-.052-.017-.05-.017-.035v-.017l-.035-.086-.016-.016-.05-.052-.036-.017-.07-.07-.05-.016-.052-.016-.034-.016-.086-.035-.052-.034-.05-.018-.036-.035-.086-.05-.086-.052h-.068v-.017h-.19l-.034-.017-.034.018-.017-.017h-.017l-.018-.017-.017-.017-.016-.017-.017-.018-.035-.034v-.034h-.017l-.034-.07-.068-.118-.034-.052H1.77l-.016-.068v-.05l-.035-.053v-.068l-.035-.086-.017-.035-.035-.085-.017-.07-.086-.1-.017-.053-.052-.068-.033-.035-.017-.017-.172-.24-.034-.05-.018-.018-.017-.017v-.017l-.035-.035-.017-.016v-.034l.034-.034v-.05l.017-.07.034-.085.017-.034.035-.034.017-.017.018-.017h.017l.137-.103.017-.017.053-.034.034-.017.138-.085.017-.018.034-.068.035-.018.19-.12.137-.068.086-.05.017-.018.035-.017v-.017l.05-.052.07-.102.017-.034v-.052l.017-.017.034-.067v-.017l.034-.035.034-.016.018-.017.017-.017.017-.017.017-.017.018-.05.035-.053h.017l.034-.034.017-.018h.02l.016-.05.017-.053v-.052l.017-.034v-.188l.017-.034v-.12h.018v-.034l.017-.052v-.068l.017-.017v-.016H2.8v-.052l.017-.017v-.05l.016-.07v-.102l-.017-.017-.018-.103-.017-.085v-.376h-.018v-.035l.035-.086v-.016l.034-.102.035-.017v-.018l.018-.017V26l.017-.017-.017-.035.017-.07v-.17l-.017-.017-.017-.033-.017-.017v-.034h.018v-.034l-.017-.018-.017-.017v-.085l-.017-.07-.018-.016-.017-.017v-.035l.017-.068v-.052l-.017-.017v-.017h-.018v-.05H2.75v-.137h.017v-.017l.018-.034-.018-.017v-.052l-.034-.068h-.017v-.12L2.7 24.63v-.016l.016-.017.017-.017.017-.017v-.035h-.017v-.068h-.017l-.017-.017.016-.017v-.017l.017-.036v-.05l-.017-.018v-.034l.017-.017v-.052h-.017v-.068l-.017-.017.033-.068v-.018l-.017-.034v-.102H2.68l-.033-.052-.034-.017.017-.034-.017-.018-.052-.016v-.035h-.016l-.034.017-.035-.017v-.07l-.017-.016-.034-.02v-.016l-.018-.017v-.033h-.034l-.017-.018v-.103l-.052-.12v-.016l-.017-.018-.017.017-.018-.018v-.035l-.017-.017h-.018v-.034l-.017-.017h-.017v-.07h-.017l-.017-.016v-.033h-.036l-.017-.017v-.034l.017-.017v-.035h-.017v-.018l.017-.017v-.085l-.017-.017v-.034l-.034-.035v-.018l-.052-.017v-.05l-.016-.018.017-.017.018-.035v-.034H2.01v-.22l-.016-.018-.017-.034v-.018l.017-.017-.017-.017v-.017h.017V22.2l-.017-.017v-.068L1.96 22.1v-.018l.017-.017v-.034h.017l-.017-.067v-.017h-.035v-.052h-.017v-.034l-.034-.017v-.034l-.016-.035h-.017l-.018-.018v-.05l-.018-.018.017-.018v-.034H1.82v-.017h-.017l.017-.016-.017-.018h-.017v-.068H1.77l-.016-.017v-.136l-.035-.034v-.086l.016-.017v-.017l.018-.017v-.05h.017v-.035l.035-.018v-.017l-.017-.017v-.086l-.017-.033.018-.035v-.034l.017-.017v-.05l.034-.018v-.05H1.82l-.017-.018.017-.034v-.035l-.017-.017v-.034l.017-.017v-.034h-.017v-.052h.017v-.016l-.017-.017v-.017h.017v-.017l-.034-.034.017-.018v-.017h-.017l-.017-.017.018-.018v-.034l-.017-.017v-.018h-.016v-.05l.017-.018v-.07l-.034-.016v-.034h.018v-.07l.034-.033h.034v-.016l-.017-.017v-.017h.034v-.05h.017l.017-.018-.017-.018.017-.017v-.034h-.017v-.12h.017v-.085l-.017-.017h.034l.035.018.017-.017v-.033h-.034v-.052l-.017-.034.018-.067.017-.017.017.017h.018v-.017l.017-.017-.017-.036.017-.034h.017v-.034h-.017l.017-.017v-.018l-.017-.017v-.017l.017-.018-.017-.017-.07.035-.016.017-.016.017h-.017l-.018-.034H1.82v-.035l.017-.034-.018-.035v-.034h-.034v-.136l-.017-.017-.034.017-.05-.034-.018-.017.017-.052-.017-.1v-.087l-.018-.017v.017l-.034-.035v-.085l.017-.05h.017l.052-.018v-.018l-.017-.017v-.033h.017v-.035l-.017-.017v-.017l.017-.034v-.052l-.017-.016v-.052l.017-.017h-.017v-.07h.017v-.05l.017-.017H1.7v-.017l.017-.034-.018-.02v-.016l.017-.017v-.102l-.018-.017v-.018l.017-.017-.018-.017-.017-.034-.017-.017h.017v-.017l.017-.017-.017-.016-.017-.017v-.018l.017-.018v-.017l-.017-.017v-.017l-.018-.016.018-.017v-.034l.017-.035.017-.017h.017l-.018-.016v-.017l.017-.017v-.017H1.7v-.05l-.017-.018v-.018l.017-.034v-.017h-.017v-.017h-.017v-.07l-.018-.016h-.017v-.035h.017l.018-.035v-.017H1.65v-.017l.018-.016v-.017L1.65 16.9v-.052l-.017-.017h.017l.018-.016-.018-.017v-.034l.018-.017.017-.017-.017-.02-.018-.016v-.017l.018-.017v-.034l-.018-.017-.017-.018h.017v-.017h-.017v-.07h.017v-.033h-.017v-.034l.017-.017v-.068l-.017-.034v-.034l.017-.034.052-.052v-.017l-.017-.033H1.65v-.05h.018l.017-.018v-.087h-.017v-.017l.017-.018v-.033l-.017-.017-.035-.07.017-.033v-.018h-.017v-.017l-.017-.017v-.016l-.017-.034h.016v-.018h.017v-.017h-.017L1.6 15.65v-.016h.033v-.017l.017-.035.018-.017v-.068H1.65v-.052l-.017-.034-.017-.016v-.017L1.6 15.36H1.58l-.018-.034v-.07h.018v-.084H1.6l-.018-.017v-.017l.017-.017v-.017l-.018-.017.017-.05V15H1.58v-.016H1.6v-.017l.016-.017-.017-.018v-.068l.016-.017v-.05H1.6v-.018l.016-.02v-.016l-.017-.017.016-.017.017-.017.017-.017v-.017l-.017-.018v-.035l.017-.017v-.017h-.017v-.034h-.017L1.6 14.52H1.58v-.034l-.018-.034.018-.018.017-.017.033-.052v-.05l.017-.018h-.017v-.035h.017v-.017l-.017-.017v-.016l-.017-.017v-.017l.017-.017v-.017h-.017v-.017h.017l.017-.036-.017-.017v-.017l.017-.017v-.017l.018-.017v-.087l-.018-.017v-.017h.018v-.018l-.018-.017v-.068l-.017-.017H1.6l-.036-.018h-.017l.018-.017h.017l-.018-.017h-.017L1.53 13.7v-.033l-.017-.068-.034-.036v-.017h.033v-.085l-.017-.017v-.052l.017-.017v-.017l-.017-.018-.017-.018v-.033h-.02v-.016h-.016v-.12l-.017-.018-.017.017h-.034v-.017l.017-.016v-.035l-.018-.017v-.017h-.017V13H1.34v-.068h-.016v-.018l.017-.017v-.017l-.033-.034-.017-.052-.018-.017v-.034l.035-.034v-.018l-.035-.035v-.05l-.017-.018v-.07l-.034-.034-.034-.017h-.034v-.052l-.017-.017h-.017v-.033h.017l.017-.017v-.017l-.034-.018v-.017l-.035-.017h-.017v-.016l-.034-.034v-.034h.017v-.052l-.018-.034h.017v-.034H1.03v-.05l-.018-.053H.98l-.034-.034.017-.018v-.12l-.017-.017-.035-.017v-.017H.93l.018-.016v-.017H.928L.86 11.7l-.018-.017H.825v-.017H.86v-.018l-.018-.017-.017-.016v-.034l.035-.017v-.017l-.035-.034v-.017l.035-.018v-.017l-.035-.034v-.017h.017l.018.016h.017v-.05l-.017-.018H.842l.035-.034-.017-.018H.842v-.017H.825v-.018l-.017-.017-.034-.017v-.068l-.017-.017H.74l-.035-.018-.017-.034-.017-.016v-.017H.69V11l-.017-.02-.017-.016v-.017l.018-.017v-.05l.035-.104v-.034H.688l-.035-.034v-.017H.636v-.102l.017-.017v-.017H.62v-.017H.6v-.016l.017-.017v-.035h.016l-.017-.12v-.068H.6v-.017l-.017-.017-.018-.017H.55v-.02H.533l-.017-.033-.035-.068H.448v-.018l.034-.034v-.07l-.016-.016-.017-.017v-.017h.017v-.034l-.017-.017-.017-.035v-.017H.36V9.8l.018-.016V9.75l-.034-.07v-.067l-.017-.017v-.034L.31 9.544H.29l-.017-.017v-.034l.017-.017v-.068H.275V9.39l-.017-.05v-.052l.017-.017h.017v-.033L.275 9.22l-.017-.018.034-.05v-.018l.017-.017V9.05l.017-.02v-.118H.31l.017-.017V8.86L.31 8.843V8.81h.017v-.086l.017-.035h.034v-.103L.36 8.57v-.017H.38l.017-.018h.018l.034-.068v-.034l-.034-.05v-.02H.378V8.33h.017v-.017H.43v-.017H.413L.395 8.28V8.26l.018-.034H.395V8.21H.378v-.068h.017v-.05H.378L.36 8.073v-.017l.018-.035.017-.034-.017-.017-.017-.016-.016-.034H.36v-.034H.345L.327 7.87.31 7.833v-.086h.017V7.73l.017-.015v-.052l.017-.017H.345L.327 7.63v-.087h.017l.017-.017.018-.05v-.087H.344v-.035H.36l.018-.017.017-.017v-.016l-.017-.017v-.035l.017-.017v-.05l-.017-.018v-.034h.017l.018-.035V7.03l-.035-.017H.36v-.086L.38 6.91H.36v-.05L.38 6.84l.017-.017v-.05l-.017-.02-.017-.033-.016-.017v-.068l-.017-.07V6.5l.017-.017V6.43l-.017-.016-.035-.017V6.38H.275v-.034h.017V6.33l.035-.018h.017v-.017l-.017-.017H.31v-.07l.017-.016h.017l.017-.017V6.09H.38l.017-.018.018-.068-.018-.017v-.034l.018-.017v-.018L.43 5.9v-.067h.034v-.05l.017-.018v.017H.5v-.07l.033-.016.017.017.017-.017h.018v-.05L.567 5.61l.018-.016.017-.035v-.035l.017-.017h.016v-.085l.017-.018v-.12H.67V5.27l-.017-.02-.017-.016-.034-.017-.035-.07-.017-.016.017-.015V5.08l-.034-.068v-.018l-.017-.017-.035-.034v-.068l-.016-.017v-.07l-.017-.033-.034-.034-.018-.016v-.017l.018-.017.017-.018v-.017l-.035-.05v-.087H.378V4.43H.36l-.016-.017v-.137H.327L.31 4.26H.29V4.24l-.017-.017v-.137l.017-.017H.31v-.05L.29 4.003v-.035H.31v-.034L.29 3.9l-.017-.034V3.85H.258L.24 3.83v-.018L.26 3.78.24 3.763H.224L.206 3.73.19 3.71V3.61l.016-.035-.017-.017-.035-.017-.018-.016L.12 3.49l.017-.035V3.42H.12l-.017-.016V3.3H.086L.07 3.285v-.068L.05 3.2V3.18l-.016-.017.017-.07v-.033l-.016-.017H.017L0 3.028V3.01l.017-.033v-.103l.017-.017.017-.017v-.052l.02-.034"/></g></svg>